<svg width="1em" height="1em" viewBox="0 0 100 45" fill="none" xmlns="http://www.w3.org/2000/svg"><path d="M88.723 1.4c-8.956-3.65-20.125.374-27.291 5.895-2.213 1.684-2.423 4.678-.527 6.643 1.897 1.965 5.269 2.152 7.482.468 5.269-4.117 12.117-5.988 16.016-4.491 4.53 1.777 5.163 8.609 5.163 12.445 0 3.836-.631 10.666-5.163 12.444-3.9 1.685-10.749-.187-16.016-4.304L38.672 7.387c-7.165-5.52-18.334-9.544-27.292-5.895C6.217 3.552 0 8.885 0 22.452s6.217 18.901 11.38 21.052c8.957 3.65 20.126-.374 27.292-5.895 2.213-1.684 2.423-4.679.527-6.644-1.897-1.965-5.27-2.151-7.482-.468-5.269 4.117-12.117 5.989-16.016 4.491-4.53-1.777-5.164-8.608-5.164-12.444 0-3.837.632-10.667 5.164-12.444 3.794-1.591 10.748.374 15.911 4.49l29.715 23.112C66.596 41.819 73.97 45 81.137 45c2.529 0 5.057-.374 7.482-1.404 5.163-2.058 11.38-7.485 11.38-21.052.104-13.66-6.112-18.993-11.276-21.144z" fill="#081B27"></path></svg>