<svg width="28" height="28" viewBox="0 0 28 28" fill="none" xmlns="http://www.w3.org/2000/svg">
<path d="M8.2824 28H19.7176C24.6722 28 28 24.8136 28 20.069V7.931C28 3.1864 24.6722 0 19.7176 0H8.2824C3.3292 0 0 3.1878 0 7.9324V20.069C0 24.8136 3.3292 28 8.2824 28Z" fill="white"/>
<path d="M15.2384 19.7087L20.6925 14.7095C21.1025 14.3334 21.1025 13.6678 20.6925 13.2903L15.2384 8.29111C14.8125 7.90163 14.1244 7.90297 13.7014 8.29511C13.2784 8.68726 13.2784 9.3195 13.7043 9.71031L17.2926 13.0009H8.08648C7.48529 13.0009 7 13.449 7 14.0013C7 14.5535 7.48529 15.0016 8.08648 15.0016H17.2926L13.7043 18.2909C13.4913 18.4869 13.3856 18.743 13.3856 19.0005C13.3856 19.2552 13.4913 19.5113 13.7014 19.7061C14.1244 20.0969 14.8125 20.0982 15.2384 19.7087Z" fill="#081B27"/>
</svg>
